<?xml version="1.0" encoding="UTF-8"?>
<svg version="1.1" xmlns="http://www.w3.org/2000/svg" width="512" height="512">
<path d="M0 0 C2.16913978 -0.00271824 4.33827863 -0.00628379 6.50741577 -0.01062012 C12.33585718 -0.01964691 18.16422687 -0.01624058 23.99266934 -0.00986195 C30.12963107 -0.00475179 36.26658719 -0.00950714 42.40354919 -0.01263428 C52.70280037 -0.01625916 63.00202274 -0.01151351 73.30126953 -0.00195312 C85.16308575 0.00893144 97.0248332 0.00539981 108.88664776 -0.00560594 C119.12166412 -0.01471764 129.35665993 -0.01594527 139.59167904 -0.0107286 C145.6824795 -0.00763054 151.77324777 -0.00713946 157.8640461 -0.01380157 C163.59259723 -0.01963135 169.32106072 -0.01547646 175.04960251 -0.00401306 C177.13634916 -0.00139644 179.22310335 -0.00207936 181.30984688 -0.00653839 C217.13096128 -0.07595311 251.04670023 5.15245077 277.61499023 31.18066406 C294.49008004 48.47203288 303.2718054 71.47831674 305.56030273 95.25878906 C305.68342819 96.46681922 305.68342819 96.46681922 305.80904102 97.69925404 C306.78484347 108.49418921 306.70853856 119.27302384 306.70556641 130.10327148 C306.70856331 132.29270484 306.71196706 134.48213767 306.71574402 136.67156982 C306.72453407 142.58711203 306.72692002 148.50263975 306.7275598 154.41818786 C306.72827314 158.1228772 306.73041282 161.82756292 306.73305702 165.53225136 C306.74277002 179.14936157 306.746324 192.76646045 306.74548159 206.38357387 C306.7450503 217.7464752 306.7564293 229.10933351 306.77134913 240.47222441 C306.78446652 250.83531693 306.78978761 261.19839485 306.78915006 271.5614956 C306.78889631 277.7356511 306.79167927 283.90976665 306.80232811 290.0839138 C306.81208006 295.89608075 306.8120401 301.70817013 306.80481148 307.52033997 C306.8037744 309.63975451 306.80607561 311.75917407 306.81217194 313.87858009 C306.8543723 329.5806507 306.66177405 345.57675821 302.43530273 360.82128906 C302.22429932 361.59666016 302.0132959 362.37203125 301.79589844 363.17089844 C298.07459238 376.08856572 292.14720947 387.88907693 283.56030273 398.25878906 C282.87323242 399.09667969 282.18616211 399.93457031 281.47827148 400.79785156 C263.57016089 421.64224696 238.6646727 433.20644981 211.39457035 435.52833176 C199.74342532 436.32829362 188.12984591 436.41407169 176.45458984 436.41992188 C174.27282632 436.42456143 172.09106359 436.42958758 169.90930176 436.43496704 C164.02666141 436.44798162 158.14403242 436.45451413 152.26137996 436.4589777 C148.57321891 436.46192559 144.88506085 436.46603343 141.19690132 436.47048187 C129.61957501 436.48412657 118.04225567 436.49380858 106.46492189 436.49768376 C93.17025106 436.50216035 79.87570937 436.5197026 66.58106607 436.54868436 C56.25605119 436.57039965 45.9310651 436.58039323 35.60602766 436.58172488 C29.46135541 436.58276567 23.31678039 436.58851721 17.17213249 436.60654449 C11.38450738 436.62319716 5.59705084 436.62509857 -0.1905899 436.61640549 C-2.29500981 436.61564428 -4.39943944 436.61985403 -6.50383568 436.62986374 C-17.33038526 436.67827404 -27.94479501 436.29598556 -38.69432068 434.93182373 C-39.61107293 434.8165443 -40.52782519 434.70126486 -41.47235781 434.58249211 C-67.96673055 430.87295771 -91.54498683 417.4719287 -108.13110352 396.50097656 C-121.85816212 377.22270475 -128.02840162 355.55115596 -129.00483704 332.07022095 C-129.04609154 331.11330939 -129.08734604 330.15639783 -129.12985069 329.17048895 C-129.53901283 318.95541702 -129.58798774 308.74771943 -129.58496094 298.52587891 C-129.58796397 296.45658814 -129.59136906 294.38729793 -129.59513855 292.31800842 C-129.60386124 286.77062154 -129.60631148 281.22325014 -129.60695434 275.67585707 C-129.60767096 272.19573403 -129.60981657 268.71561479 -129.61245155 265.23549271 C-129.62166236 253.05510462 -129.62579135 240.87472739 -129.625 228.69433594 C-129.62439865 217.40053868 -129.63497286 206.10678909 -129.65074366 194.8130039 C-129.66387208 185.05861069 -129.66918176 175.30423299 -129.66854459 165.54983103 C-129.66829139 159.74909885 -129.67104385 153.94840925 -129.68172264 148.147686 C-129.69149496 142.69242945 -129.6914211 137.23725546 -129.68420601 131.78199577 C-129.6831718 129.79725586 -129.68545249 127.81251054 -129.69156647 125.82777977 C-129.79437218 90.10180066 -125.02998283 58.03296684 -99.43969727 31.25878906 C-98.83899414 30.58332031 -98.23829102 29.90785156 -97.61938477 29.21191406 C-72.68875935 2.23071773 -34.27438764 -0.07331708 0 0 Z M-26.43969727 6.25878906 C-26.43969727 6.58878906 -26.43969727 6.91878906 -26.43969727 7.25878906 C-21.15969727 7.25878906 -15.87969727 7.25878906 -10.43969727 7.25878906 C-10.43969727 6.92878906 -10.43969727 6.59878906 -10.43969727 6.25878906 C-15.71969727 6.25878906 -20.99969727 6.25878906 -26.43969727 6.25878906 Z M188.56030273 6.25878906 C188.56030273 6.58878906 188.56030273 6.91878906 188.56030273 7.25878906 C193.51030273 7.25878906 198.46030273 7.25878906 203.56030273 7.25878906 C203.56030273 6.92878906 203.56030273 6.59878906 203.56030273 6.25878906 C198.61030273 6.25878906 193.66030273 6.25878906 188.56030273 6.25878906 Z M-37.43969727 7.25878906 C-37.43969727 7.58878906 -37.43969727 7.91878906 -37.43969727 8.25878906 C-35.78969727 8.25878906 -34.13969727 8.25878906 -32.43969727 8.25878906 C-32.43969727 7.92878906 -32.43969727 7.59878906 -32.43969727 7.25878906 C-34.08969727 7.25878906 -35.73969727 7.25878906 -37.43969727 7.25878906 Z M209.56030273 7.25878906 C209.56030273 7.58878906 209.56030273 7.91878906 209.56030273 8.25878906 C211.21030273 8.25878906 212.86030273 8.25878906 214.56030273 8.25878906 C214.56030273 7.92878906 214.56030273 7.59878906 214.56030273 7.25878906 C212.91030273 7.25878906 211.26030273 7.25878906 209.56030273 7.25878906 Z " fill="#F9A1C8" transform="translate(167.439697265625,42.7412109375)"/>
<path d="M0 0 C0.83869629 -0.01087646 1.67739258 -0.02175293 2.54150391 -0.03295898 C11.70177822 0.17420994 18.6311333 3.64437453 25.27734375 9.828125 C31.23778955 16.27943105 31.45277589 24.65720313 31.28515625 33.01171875 C30.79317402 42.37173221 28.15640225 51.55710647 25.9375 60.625 C25.60927246 61.99156738 25.60927246 61.99156738 25.27441406 63.38574219 C23.2898459 71.64118326 21.19658347 79.85060443 18.8125 88 C18.18131717 90.20657412 17.5561243 92.41487216 16.9375 94.625 C16.48503906 96.24148437 16.48503906 96.24148437 16.0234375 97.890625 C14.25605008 104.99320996 13.58259208 111.89464468 13.4375 119.1875 C13.39157715 120.47358154 13.39157715 120.47358154 13.34472656 121.78564453 C13.34298141 126.19652562 13.51110707 128.06270781 16.25390625 131.6796875 C19.80209211 134.25173489 21.63666701 134.30407889 25.9375 133.625 C35.17848781 129.09880189 39.72800673 118.71873312 44.60067749 110.16479492 C60.21291081 82.88559755 60.21291081 82.88559755 71.9296875 78.95703125 C80.11646229 77.60318717 87.74505179 78.30449258 94.9375 82.625 C99.28663474 86.50590491 102.63552334 90.83698297 103.2734375 96.7265625 C103.46248403 113.77855993 95.27168172 123.86675096 84.9375 136.625 C74.92565531 148.99647307 67.83860914 159.96159099 67.4453125 176.23046875 C67.37932219 178.12175935 67.31290118 180.01303496 67.24609375 181.90429688 C67.15238483 184.83670628 67.06368128 187.76908238 66.98388672 190.7019043 C66.0911334 222.08458921 59.70500542 249.56547772 36.53125 271.94921875 C29.80599893 277.83381343 22.23271104 280.70292251 13.9375 283.625 C12.94878906 284.00527344 11.96007812 284.38554687 10.94140625 284.77734375 C2.20457189 287.9885242 -6.86737331 289.40688476 -16.0625 290.625 C-17.14724609 290.77183228 -17.14724609 290.77183228 -18.25390625 290.92163086 C-25.67630272 291.79858137 -33.11115574 291.81111962 -40.57421875 291.81030273 C-42.79446809 291.8124823 -45.01421346 291.83068196 -47.234375 291.84960938 C-60.05746707 291.90221894 -72.28431929 290.521951 -84.625 286.875 C-85.5219458 286.61332031 -86.4188916 286.35164063 -87.34301758 286.08203125 C-94.61652344 283.89218668 -101.347758 281.2093482 -108.0625 277.625 C-108.91585937 277.18800781 -109.76921875 276.75101562 -110.6484375 276.30078125 C-127.21585436 267.18086251 -137.51868222 251.61589274 -147.6652832 236.22631836 C-154.41371714 226.00956146 -161.75785372 216.63446866 -170.0625 207.625 C-171.80513666 205.64850301 -173.53252108 203.659607 -175.2578125 201.66796875 C-176.54292569 200.21317611 -177.85313609 198.7803906 -179.1796875 197.36328125 C-190.65166999 185.03784677 -200.58998 171.89205277 -200.33203125 154.3984375 C-199.64035491 147.28118823 -195.53237525 142.3356436 -190.48828125 137.51953125 C-181.30520185 130.34756103 -171.48613833 127.59438422 -160.00634766 128.37304688 C-149.60857027 129.7207618 -141.28150394 137.744402 -135.0625 145.625 C-132.0466675 149.64276545 -129.1573493 153.73471714 -126.3125 157.875 C-125.58385742 158.9170459 -124.85521484 159.9590918 -124.10449219 161.03271484 C-119.10163365 168.55146874 -119.10163365 168.55146874 -118.91796875 173.58984375 C-120.02790995 176.53327143 -121.09986652 178.54851275 -123.125 180.9375 C-125.46902027 183.45118464 -125.46902027 183.45118464 -126.0625 186.625 C-123.07127165 186.55378028 -120.85097982 186.25501084 -118.46875 184.3515625 C-113.19454884 178.61990511 -109.91743515 171.64467616 -109.625 163.8125 C-110.31177544 151.95620322 -114.50609048 140.49742012 -118.25 129.3125 C-118.50316986 128.5507547 -118.75633972 127.7890094 -119.0171814 127.00418091 C-124.18325216 111.52791539 -130.15857535 96.40816552 -136.33998108 81.31367493 C-139.30652822 74.06147137 -142.18672606 66.7858938 -144.91796875 59.44140625 C-145.34919792 58.29223976 -145.34919792 58.29223976 -145.78913879 57.11985779 C-149.95523566 45.78440513 -152.52397579 33.31939733 -149.15234375 21.41015625 C-145.3578887 13.29661089 -139.20786418 8.98867266 -131.0625 5.625 C-123.34418268 3.02370458 -111.3766162 3.44299229 -103.94140625 6.546875 C-93.63187268 12.46253252 -89.16627896 24.30717998 -86.13671875 35.24609375 C-83.29588084 46.06396538 -81.20468256 57.06268627 -78.98974609 68.02124023 C-75.06537524 92.19463126 -75.06537524 92.19463126 -63.75 113.25 C-60.08316063 115.12605735 -57.02661485 115.56883687 -53.0625 114.625 C-46.5150812 111.53353834 -44.4383296 105.60981045 -42.10546875 99.13671875 C-39.52733176 90.4560253 -38.4417635 81.88020416 -37.5625 72.875 C-36.75949953 64.75675352 -35.8263459 56.70412791 -34.53564453 48.64794922 C-34.1059958 45.90289731 -33.73177919 43.15909397 -33.38671875 40.40234375 C-31.79332949 28.01832778 -29.94144617 15.31051643 -20.0625 6.625 C-19.43472656 6.04621094 -18.80695313 5.46742187 -18.16015625 4.87109375 C-12.42576674 0.52747006 -6.96682301 0.06077577 0 0 Z " fill="#FAFAFA" transform="translate(304.0625,89.375)"/>
<path d="M0 0 C2.16913978 -0.00271824 4.33827863 -0.00628379 6.50741577 -0.01062012 C12.33585718 -0.01964691 18.16422687 -0.01624058 23.99266934 -0.00986195 C30.12963107 -0.00475179 36.26658719 -0.00950714 42.40354919 -0.01263428 C52.70280037 -0.01625916 63.00202274 -0.01151351 73.30126953 -0.00195312 C85.16308575 0.00893144 97.0248332 0.00539981 108.88664776 -0.00560594 C119.12166412 -0.01471764 129.35665993 -0.01594527 139.59167904 -0.0107286 C145.6824795 -0.00763054 151.77324777 -0.00713946 157.8640461 -0.01380157 C163.59259723 -0.01963135 169.32106072 -0.01547646 175.04960251 -0.00401306 C177.13634916 -0.00139644 179.22310335 -0.00207936 181.30984688 -0.00653839 C217.13096128 -0.07595311 251.04670023 5.15245077 277.61499023 31.18066406 C294.49008004 48.47203288 303.2718054 71.47831674 305.56030273 95.25878906 C305.68342819 96.46681922 305.68342819 96.46681922 305.80904102 97.69925404 C306.78484347 108.49418921 306.70853856 119.27302384 306.70556641 130.10327148 C306.70856331 132.29270484 306.71196706 134.48213767 306.71574402 136.67156982 C306.72453407 142.58711203 306.72692002 148.50263975 306.7275598 154.41818786 C306.72827314 158.1228772 306.73041282 161.82756292 306.73305702 165.53225136 C306.74277002 179.14936157 306.746324 192.76646045 306.74548159 206.38357387 C306.7450503 217.7464752 306.7564293 229.10933351 306.77134913 240.47222441 C306.78446652 250.83531693 306.78978761 261.19839485 306.78915006 271.5614956 C306.78889631 277.7356511 306.79167927 283.90976665 306.80232811 290.0839138 C306.81208006 295.89608075 306.8120401 301.70817013 306.80481148 307.52033997 C306.8037744 309.63975451 306.80607561 311.75917407 306.81217194 313.87858009 C306.8543723 329.5806507 306.66177405 345.57675821 302.43530273 360.82128906 C302.22429932 361.59666016 302.0132959 362.37203125 301.79589844 363.17089844 C298.07459238 376.08856572 292.14720947 387.88907693 283.56030273 398.25878906 C282.87323242 399.09667969 282.18616211 399.93457031 281.47827148 400.79785156 C263.57016089 421.64224696 238.6646727 433.20644981 211.39457035 435.52833176 C199.74342532 436.32829362 188.12984591 436.41407169 176.45458984 436.41992188 C174.27282632 436.42456143 172.09106359 436.42958758 169.90930176 436.43496704 C164.02666141 436.44798162 158.14403242 436.45451413 152.26137996 436.4589777 C148.57321891 436.46192559 144.88506085 436.46603343 141.19690132 436.47048187 C129.61957501 436.48412657 118.04225567 436.49380858 106.46492189 436.49768376 C93.17025106 436.50216035 79.87570937 436.5197026 66.58106607 436.54868436 C56.25605119 436.57039965 45.9310651 436.58039323 35.60602766 436.58172488 C29.46135541 436.58276567 23.31678039 436.58851721 17.17213249 436.60654449 C11.38450738 436.62319716 5.59705084 436.62509857 -0.1905899 436.61640549 C-2.29500981 436.61564428 -4.39943944 436.61985403 -6.50383568 436.62986374 C-17.33038526 436.67827404 -27.94479501 436.29598556 -38.69432068 434.93182373 C-39.61107293 434.8165443 -40.52782519 434.70126486 -41.47235781 434.58249211 C-67.96673055 430.87295771 -91.54498683 417.4719287 -108.13110352 396.50097656 C-121.85816212 377.22270475 -128.02840162 355.55115596 -129.00483704 332.07022095 C-129.04609154 331.11330939 -129.08734604 330.15639783 -129.12985069 329.17048895 C-129.53901283 318.95541702 -129.58798774 308.74771943 -129.58496094 298.52587891 C-129.58796397 296.45658814 -129.59136906 294.38729793 -129.59513855 292.31800842 C-129.60386124 286.77062154 -129.60631148 281.22325014 -129.60695434 275.67585707 C-129.60767096 272.19573403 -129.60981657 268.71561479 -129.61245155 265.23549271 C-129.62166236 253.05510462 -129.62579135 240.87472739 -129.625 228.69433594 C-129.62439865 217.40053868 -129.63497286 206.10678909 -129.65074366 194.8130039 C-129.66387208 185.05861069 -129.66918176 175.30423299 -129.66854459 165.54983103 C-129.66829139 159.74909885 -129.67104385 153.94840925 -129.68172264 148.147686 C-129.69149496 142.69242945 -129.6914211 137.23725546 -129.68420601 131.78199577 C-129.6831718 129.79725586 -129.68545249 127.81251054 -129.69156647 125.82777977 C-129.79437218 90.10180066 -125.02998283 58.03296684 -99.43969727 31.25878906 C-98.83899414 30.58332031 -98.23829102 29.90785156 -97.61938477 29.21191406 C-72.68875935 2.23071773 -34.27438764 -0.07331708 0 0 Z M-26.43969727 6.25878906 C-26.43969727 6.91878906 -26.43969727 7.57878906 -26.43969727 8.25878906 C-30.06969727 7.92878906 -33.69969727 7.59878906 -37.43969727 7.25878906 C-37.43969727 7.91878906 -37.43969727 8.57878906 -37.43969727 9.25878906 C-39.41969727 8.92878906 -41.39969727 8.59878906 -43.43969727 8.25878906 C-43.43969727 8.91878906 -43.43969727 9.57878906 -43.43969727 10.25878906 C-44.61532227 9.94941406 -44.61532227 9.94941406 -45.81469727 9.63378906 C-46.68094727 9.51003906 -47.54719727 9.38628906 -48.43969727 9.25878906 C-49.09969727 9.91878906 -49.75969727 10.57878906 -50.43969727 11.25878906 C-52.10632627 11.26999329 -53.77305901 11.26852126 -55.43969727 11.25878906 C-62.03217735 13.28062635 -70.5384594 16.3575512 -75.43969727 21.25878906 C-76.7730306 21.92545573 -78.10636393 22.5921224 -79.43969727 23.25878906 C-80.09969727 23.91878906 -80.75969727 24.57878906 -81.43969727 25.25878906 C-86.43969727 29.25878906 -86.43969727 29.25878906 -88.21704102 30.67675781 C-89.13163086 31.42892578 -89.13163086 31.42892578 -90.06469727 32.19628906 C-90.63446289 32.6590625 -91.20422852 33.12183594 -91.79125977 33.59863281 C-93.79675888 35.61838903 -95.00779646 37.80252845 -96.43969727 40.25878906 C-97.67925345 41.89176961 -98.92997915 43.516311 -100.18969727 45.13378906 C-116.34564381 67.2888187 -117.74842747 93.58798975 -117.71435547 120.03881836 C-117.71871181 122.29279243 -117.723898 124.54676503 -117.72984314 126.80073547 C-117.74314667 132.87953346 -117.7438214 138.95826893 -117.74127984 145.03707862 C-117.74020402 150.13331526 -117.74510914 155.22953956 -117.74988526 160.32577354 C-117.76158186 173.04777468 -117.76077259 185.76973101 -117.75432845 198.49173168 C-117.74916518 209.48905759 -117.76040595 220.48629477 -117.77942667 231.48360314 C-117.79889499 242.82841648 -117.80675527 254.17317584 -117.80330342 265.51801044 C-117.8015011 271.86605451 -117.80402056 278.21401734 -117.81801796 284.56204796 C-117.83070465 290.53845371 -117.82855093 296.51468353 -117.81560707 302.49108696 C-117.81326498 304.66729546 -117.81588941 306.84351677 -117.82423019 309.01971054 C-117.93518743 340.25546925 -113.212934 368.51065557 -91.43969727 392.25878906 C-68.09888823 415.41860313 -38.71808753 419.55858155 -7.39941406 419.56518555 C-5.09311153 419.57281979 -2.78681151 419.58124942 -0.48051453 419.59040833 C5.75154626 419.61224062 11.98355801 419.62113748 18.2156527 419.62623477 C22.1219205 419.62989296 26.02817574 419.63614065 29.93443871 419.64323616 C40.79258327 419.66267222 51.650715 419.67919736 62.50887775 419.68211269 C63.20138849 419.68230026 63.89389922 419.68248783 64.60739512 419.68268109 C66.0107191 419.68304729 67.41404308 419.68341099 68.81736705 419.6837722 C69.86199888 419.68404642 69.86199888 419.68404642 70.92773438 419.68432617 C71.62502591 419.68450672 72.32231744 419.68468727 73.04073902 419.68487329 C84.31360115 419.6884073 95.58627135 419.71539018 106.85906706 419.75282406 C118.4886019 419.79112704 130.11803289 419.80983298 141.74763173 419.81057221 C148.25463494 419.81135982 154.76139029 419.81985842 161.26833534 419.84856987 C167.40075399 419.87502575 173.53272411 419.8768043 179.66517448 419.86091423 C181.89453752 419.85912117 184.12392802 419.86559195 186.35323334 419.88173294 C217.09180336 420.090417 246.25901503 414.1946661 268.81030273 392.13378906 C291.42614832 368.4899505 294.87393348 340.18117416 294.83496094 309.00976562 C294.83931604 306.69358151 294.84450184 304.37739884 294.85044861 302.06121826 C294.86376465 295.80894765 294.8644255 289.55673777 294.86188531 283.30445576 C294.86081045 278.06641719 294.86571213 272.82839065 294.87049073 267.59035468 C294.88219191 254.51698168 294.88137554 241.44364302 294.87493392 228.37026784 C294.86976907 217.06113494 294.88101479 205.7520883 294.90003214 194.44297245 C294.91948485 182.78405978 294.9276535 171.12518775 294.92390889 159.46625876 C294.92210455 152.93941212 294.92464676 146.41264446 294.93862343 139.88581085 C294.95128755 133.74280861 294.94917716 127.59997774 294.93621254 121.45697784 C294.93386571 119.2170404 294.93651249 116.97709057 294.94483566 114.73716736 C295.03409459 88.82463953 292.41107492 62.4689227 274.84545898 41.93066406 C273.56030273 40.25878906 273.56030273 40.25878906 273.56030273 38.25878906 C272.13761562 36.81660254 272.13761562 36.81660254 270.31030273 35.38378906 C267.57840005 33.12366074 265.06800352 30.76648985 262.56030273 28.25878906 C260.25192126 26.29666481 258.14777567 24.55252553 255.43530273 23.19628906 C253.36179781 22.1595366 252.1898072 20.88829352 250.56030273 19.25878906 C248.23765614 17.95230035 246.10107991 17.10571479 243.56030273 16.25878906 C242.21893906 15.60843092 240.8849802 14.94249356 239.56030273 14.25878906 C238.90030273 13.92878906 238.24030273 13.59878906 237.56030273 13.25878906 C236.90030273 13.58878906 236.24030273 13.91878906 235.56030273 14.25878906 C235.23030273 13.59878906 234.90030273 12.93878906 234.56030273 12.25878906 C232.91030273 12.25878906 231.26030273 12.25878906 229.56030273 12.25878906 C229.56030273 11.59878906 229.56030273 10.93878906 229.56030273 10.25878906 C225.0288962 9.32497945 225.0288962 9.32497945 220.56030273 10.25878906 C220.56030273 9.59878906 220.56030273 8.93878906 220.56030273 8.25878906 C218.58030273 8.25878906 216.60030273 8.25878906 214.56030273 8.25878906 C214.56030273 7.92878906 214.56030273 7.59878906 214.56030273 7.25878906 C210.93030273 7.58878906 207.30030273 7.91878906 203.56030273 8.25878906 C203.56030273 7.59878906 203.56030273 6.93878906 203.56030273 6.25878906 C127.66030273 6.25878906 51.76030273 6.25878906 -26.43969727 6.25878906 Z " fill="#020001" transform="translate(167.439697265625,42.7412109375)"/>
<path d="M0 0 C5.58032612 4.8163529 10.3049498 11.49264235 11.25439453 18.93969727 C11.37317759 21.47142185 11.3837635 23.9775306 11.34375 26.51171875 C11.33577393 27.42808105 11.32779785 28.34444336 11.31958008 29.28857422 C11.07768109 41.11406641 8.95847149 52.32463327 5.79614258 63.68701172 C2.972586 73.96645729 0.48400666 84.34089159 -2.03125 94.69921875 C-2.23347168 95.52695801 -2.43569336 96.35469727 -2.64404297 97.20751953 C-4.88006744 106.53610191 -5.39661735 115.15907122 -5.03125 124.69921875 C-0.10865044 123.31848961 1.46405491 121.04622197 4.09375 116.76171875 C4.47354004 116.15344238 4.85333008 115.54516602 5.24462891 114.91845703 C7.46495674 111.32197448 9.5592538 107.66452119 11.609375 103.96875 C19.96590154 88.95135475 28.87126241 75.52969839 45.96875 69.69921875 C56.2582271 68.65335262 64.71509473 70.46349122 72.96875 76.69921875 C79.75947239 82.24520588 83.2919364 87.75797058 84.48828125 96.4921875 C85.76515549 113.6459322 76.86191658 125.26767553 66.234375 137.80078125 C63.11008665 141.48994387 60.17821462 145.28384133 57.34375 149.19921875 C56.17972656 150.7925 56.17972656 150.7925 54.9921875 152.41796875 C46.41668835 166.32418358 47.49652346 184.13123324 47.09057617 199.94506836 C46.38338585 226.0361431 39.06664299 250.67209187 21.375 270.41015625 C19.71028733 272.62184316 19.71028733 272.62184316 20.15234375 275.29296875 C20.96645071 277.87186701 20.96645071 277.87186701 22.53125 280.82421875 C25.69475481 288.00833559 24.39915432 296.14536026 21.9375 303.359375 C15.88122807 317.98722536 3.88567651 324.83904443 -9.91796875 330.984375 C-17.38450506 333.91965011 -25.14723501 335.36626569 -33.03125 336.69921875 C-34.18052979 336.90659668 -34.18052979 336.90659668 -35.35302734 337.11816406 C-58.11718815 341.1543951 -82.39206142 341.76506105 -105.03125 336.69921875 C-105.68399902 336.56531738 -106.33674805 336.43141602 -107.00927734 336.29345703 C-122.5857122 333.05898465 -137.25726638 326.63067803 -147.03125 313.69921875 C-151.61906687 305.77689839 -152.43683293 296.41742869 -150.5703125 287.49609375 C-150.08778548 285.88767036 -149.56227336 284.29228884 -149.03125 282.69921875 C-148.52578152 280.25513681 -148.52578152 280.25513681 -149.03125 277.69921875 C-151.20310656 275.4001222 -151.20310656 275.4001222 -154.09375 273.38671875 C-162.11043777 267.43743468 -167.71645208 260.02248366 -173.21875 251.76171875 C-174.35596427 250.08148507 -175.49400273 248.40180896 -176.6328125 246.72265625 C-177.48407715 245.46340332 -177.48407715 245.46340332 -178.35253906 244.17871094 C-187.49283292 230.67830017 -197.11587132 218.11114152 -208.22558594 206.17114258 C-222.54128575 190.76975889 -234.90073944 175.69808889 -234.34375 153.58203125 C-233.93533793 148.50751131 -232.77731551 144.94623932 -230.03125 140.69921875 C-229.59554687 140.01601562 -229.15984375 139.3328125 -228.7109375 138.62890625 C-221.52129316 128.29624799 -212.80304736 123.6231512 -201.03125 119.69921875 C-188.67953915 118.61573534 -178.32123406 120.46765129 -168.15625 128.07421875 C-166.75926573 129.25706675 -165.38281005 130.46472295 -164.03125 131.69921875 C-163.41765625 132.25609375 -162.8040625 132.81296875 -162.171875 133.38671875 C-158.19455798 137.18804829 -154.86943356 141.35579668 -151.609375 145.78125 C-149.99387235 147.93363069 -149.99387235 147.93363069 -147.03125 149.69921875 C-147.29399146 148.21859333 -147.56703236 146.7397959 -147.84375 145.26171875 C-148.06998047 144.02615234 -148.06998047 144.02615234 -148.30078125 142.765625 C-149.28182655 138.64733322 -150.6420677 134.69552593 -152.03125 130.69921875 C-152.45921875 129.466875 -152.8871875 128.23453125 -153.328125 126.96484375 C-158.29988397 113.11181875 -163.91375304 99.51202438 -169.47283936 85.88745117 C-170.69985519 82.87971632 -171.92480677 79.87114295 -173.14941406 76.86242676 C-173.73183218 75.43371254 -174.31562775 74.00555898 -174.90087891 72.57800293 C-181.6728791 56.05295635 -188.91615539 35.84557721 -182.40625 18.01171875 C-181.28515625 15.765625 -181.28515625 15.765625 -180.03125 13.69921875 C-179.60714844 12.98636719 -179.18304688 12.27351563 -178.74609375 11.5390625 C-173.48936439 3.70521791 -164.96604474 -1.55146366 -155.86328125 -3.84765625 C-145.50506598 -5.50497069 -134.86012442 -5.73059116 -125.640625 -0.2421875 C-111.741427 10.09898227 -106.84511712 25.14949864 -103.52978516 41.41259766 C-102.95059687 44.06914883 -102.27817467 46.69471719 -101.6015625 49.328125 C-100.18166872 54.9392662 -99.01208852 60.57920843 -97.88793945 66.25610352 C-95.00230194 86.71186894 -95.00230194 86.71186894 -86.03125 104.69921875 C-83.57537036 105.53278288 -83.57537036 105.53278288 -81.03125 104.69921875 C-73.62069231 96.85274591 -73.35111123 83.13465414 -72.03125 72.94921875 C-71.86173828 71.69149658 -71.69222656 70.43377441 -71.51757812 69.13793945 C-70.71192945 63.11039531 -69.94880746 57.07992543 -69.25 51.0390625 C-64.82963721 12.88811463 -64.82963721 12.88811463 -51.1171875 0.23046875 C-35.42243715 -11.2907712 -15.8357253 -11.38909954 0 0 Z M-47.03125 5.69921875 C-47.60746094 6.20582031 -48.18367187 6.71242188 -48.77734375 7.234375 C-57.90982777 16.50350467 -59.13755358 29.73701178 -60.67089844 41.99902344 C-61.07084059 44.99587997 -61.54745574 47.97587138 -62.02734375 50.9609375 C-62.91356781 56.64084701 -63.52965893 62.31610376 -64.07006836 68.03808594 C-67.34305881 102.46509655 -67.34305881 102.46509655 -76.78125 111.69921875 C-81.12534581 114.37250848 -82.99625027 114.41850443 -88.03125 113.69921875 C-102.7148754 103.69376059 -103.58508428 78.92980597 -106.7890625 62.9765625 C-106.93926346 62.23303528 -107.08946442 61.48950806 -107.24421692 60.72344971 C-107.97980645 57.08107961 -108.7056415 53.4375125 -109.40795898 49.78857422 C-112.50255385 34.02618068 -116.32968274 18.09593208 -128.80859375 7.07421875 C-134.09212775 3.80567048 -139.8260836 3.33546494 -145.90625 3.38671875 C-146.96005859 3.39517822 -146.96005859 3.39517822 -148.03515625 3.40380859 C-157.40411057 3.62244639 -164.16824487 6.28752235 -171.03125 12.69921875 C-177.93404201 21.60018739 -178.06186876 30.88228206 -177.03125 41.69921875 C-175.93168882 47.2672094 -174.04308845 52.41419155 -172.03125 57.69921875 C-171.23265825 59.85401303 -170.4345199 62.00897538 -169.63671875 64.1640625 C-165.46367197 75.34388556 -161.1369213 86.46007235 -156.73901367 97.55322266 C-132.99856387 157.46306817 -132.99856387 157.46306817 -138.65625 172.88671875 C-140.69532725 177.4387433 -143.09120554 181.55104597 -147.03125 184.69921875 C-150.40625 185.63671875 -150.40625 185.63671875 -153.03125 185.69921875 C-151.68061098 181.64730169 -149.72943429 178.90897318 -146.95703125 175.73828125 C-145.4240156 172.36176577 -146.09027065 170.2576349 -147.03125 166.69921875 C-148.78439175 163.41405223 -150.87046915 160.41525517 -153.03125 157.38671875 C-153.61922363 156.54729736 -154.20719727 155.70787598 -154.81298828 154.84301758 C-159.1619514 148.71849498 -163.66224723 142.97272542 -169.03125 137.69921875 C-169.62164062 137.11011719 -170.21203125 136.52101562 -170.8203125 135.9140625 C-178.43287821 128.84028569 -185.9016241 126.93057072 -196.25 127.26171875 C-207.68615451 128.58491018 -216.32642465 134.6930274 -223.50390625 143.5078125 C-227.91943146 149.85414085 -227.85731344 156.80346662 -226.60546875 164.22265625 C-223.36019795 176.5268118 -215.65380934 185.69687294 -207.03125 194.69921875 C-205.34892831 196.57434585 -203.69814654 198.47305507 -202.05078125 200.37890625 C-200.43783259 202.2320813 -198.80830916 204.06579846 -197.16796875 205.89453125 C-186.10989698 218.31500074 -176.62455507 231.6828994 -167.49414062 245.56054688 C-150.93123613 270.5544865 -128.13879475 283.04265144 -99.06738281 289.32324219 C-89.73967044 291.04562553 -80.2332813 290.93921399 -70.78125 290.94921875 C-70.03268738 290.95055817 -69.28412476 290.95189758 -68.51287842 290.95327759 C-55.82283915 290.94837064 -43.51549171 290.11580502 -31.03125 287.69921875 C-29.93167969 287.49425781 -28.83210937 287.28929687 -27.69921875 287.078125 C-21.35277962 285.68034566 -15.26408246 283.45371016 -9.15625 281.26171875 C-8.34647705 280.97329102 -7.5367041 280.68486328 -6.70239258 280.38769531 C9.36038349 274.42900426 21.72264336 260.70490164 29.15625 245.57421875 C31.36060656 240.52281857 33.13360108 235.4079445 34.71875 230.13671875 C34.91750732 229.47720215 35.11626465 228.81768555 35.32104492 228.13818359 C39.38330955 213.83580826 39.54465501 199.3477515 39.99780273 184.59326172 C40.09004603 181.68795723 40.19849202 178.78358122 40.30859375 175.87890625 C40.33058334 175.00571747 40.35257294 174.13252869 40.37522888 173.23287964 C40.97145896 158.19420209 48.08400225 147.97909728 57.49609375 136.7265625 C60.35710844 133.22374041 63.0879885 129.64428004 65.78125 126.01171875 C66.46525879 125.10341309 66.46525879 125.10341309 67.16308594 124.17675781 C74.48666183 114.21950098 77.41062973 105.20924197 75.96875 92.69921875 C73.07416229 85.57793202 68.1436357 81.64102605 61.28125 78.44921875 C53.81865741 76.75957514 46.69081848 76.76744285 39.96875 80.69921875 C29.21803221 88.36893815 22.8044214 100.32626007 16.28125 111.51171875 C5.5693063 129.87040891 5.5693063 129.87040891 -1.03125 132.69921875 C-5.31267969 133.31085156 -7.20121934 133.31598606 -10.70703125 130.7109375 C-13.80926201 126.69107209 -13.83530313 123.96399715 -13.71875 119.01171875 C-13.702677 117.71741943 -13.702677 117.71741943 -13.6862793 116.39697266 C-13.11752555 100.72925984 -8.17592872 85.33507793 -3.86547852 70.35229492 C5.40272138 41.41105763 5.40272138 41.41105763 0.96875 12.69921875 C-3.74136143 5.74619711 -9.18940428 2.31316732 -17.03125 -0.30078125 C-27.82401701 -1.41727439 -38.62954653 -2.04691032 -47.03125 5.69921875 Z " fill="#0A0709" transform="translate(331.03125,90.30078125)"/>
<path d="M0 0 C5.58032612 4.8163529 10.3049498 11.49264235 11.25439453 18.93969727 C11.37317759 21.47142185 11.3837635 23.9775306 11.34375 26.51171875 C11.33577393 27.42808105 11.32779785 28.34444336 11.31958008 29.28857422 C11.07768109 41.11406641 8.95847149 52.32463327 5.79614258 63.68701172 C2.972586 73.96645729 0.48400666 84.34089159 -2.03125 94.69921875 C-2.23347168 95.52695801 -2.43569336 96.35469727 -2.64404297 97.20751953 C-4.88006744 106.53610191 -5.39661735 115.15907122 -5.03125 124.69921875 C-0.10865044 123.31848961 1.46405491 121.04622197 4.09375 116.76171875 C4.47354004 116.15344238 4.85333008 115.54516602 5.24462891 114.91845703 C7.46495674 111.32197448 9.5592538 107.66452119 11.609375 103.96875 C19.96590154 88.95135475 28.87126241 75.52969839 45.96875 69.69921875 C56.2582271 68.65335262 64.71509473 70.46349122 72.96875 76.69921875 C79.75947239 82.24520588 83.2919364 87.75797058 84.48828125 96.4921875 C85.31798112 107.83318061 82.02658358 116.22444271 75.96875 125.69921875 C74.20703125 127.64453125 74.20703125 127.64453125 72.96875 128.69921875 C72.30875 128.03921875 71.64875 127.37921875 70.96875 126.69921875 C68.36594432 127.01963272 68.36594432 127.01963272 65.96875 127.69921875 C65.96875 128.35921875 65.96875 129.01921875 65.96875 129.69921875 C65.30875 129.69921875 64.64875 129.69921875 63.96875 129.69921875 C63.63875 130.68921875 63.30875 131.67921875 62.96875 132.69921875 C62.30875 132.69921875 61.64875 132.69921875 60.96875 132.69921875 C62.4483179 129.50569596 64.27205532 126.78988307 66.34375 123.94921875 C73.48816175 113.85773715 76.38009157 105.18205533 74.96875 92.69921875 C72.91957876 87.32297981 69.87293264 83.85329362 64.78125 81.19921875 C57.65936434 78.16504261 50.77565599 77.60231363 43.28125 79.76171875 C29.82382313 87.6330439 23.09366962 101.61453997 15.48632812 114.68554688 C5.97873794 130.79263839 5.97873794 130.79263839 -1.03125 133.69921875 C-4.53125 134.19921875 -4.53125 134.19921875 -8.03125 133.69921875 C-10.90625 131.26171875 -10.90625 131.26171875 -13.03125 128.69921875 C-13.36125 128.36921875 -13.69125 128.03921875 -14.03125 127.69921875 C-15.75429539 107.82967002 -10.30882202 89.27292517 -4.86547852 70.35229492 C4.3572232 41.43494292 4.3572232 41.43494292 -0.03125 12.69921875 C-4.25522094 6.10666597 -9.75235634 3.12551664 -17.03125 0.69921875 C-26.56637049 -0.28717302 -37.15030257 -1.13800925 -45.125 4.87109375 C-55.96819657 15.26989702 -57.78805258 27.67607332 -59.65478516 41.96679688 C-60.06930304 44.97541173 -60.54950121 47.97019297 -61.03125 50.96875 C-61.91504783 56.64596404 -62.52994325 62.31911424 -63.07006836 68.03808594 C-66.34056481 102.43886345 -66.34056481 102.43886345 -76.28125 112.19921875 C-78.86175994 114.21610553 -80.81473563 115.15474259 -84.09375 115.38671875 C-89.91700492 114.36995995 -92.23488273 112.21507343 -95.5234375 107.609375 C-103.20515281 94.37533179 -104.8178164 77.77098656 -107.7890625 62.9765625 C-107.93926346 62.23303528 -108.08946442 61.48950806 -108.24421692 60.72344971 C-108.97980645 57.08107961 -109.7056415 53.4375125 -110.40795898 49.78857422 C-113.36818975 34.71011123 -116.90926175 18.30313844 -129.02734375 7.85546875 C-134.28803222 4.82006176 -139.95205581 4.33652684 -145.90625 4.38671875 C-146.96005859 4.39517822 -146.96005859 4.39517822 -148.03515625 4.40380859 C-157.40943431 4.62257063 -164.15470812 7.29300639 -171.03125 13.69921875 C-172.94869593 16.14231452 -172.94869593 16.14231452 -174.03125 18.69921875 C-174.37542969 19.40304688 -174.71960938 20.106875 -175.07421875 20.83203125 C-179.11945596 32.9512317 -175.38482411 46.26253623 -171.03125 57.69921875 C-170.23265825 59.85401303 -169.4345199 62.00897538 -168.63671875 64.1640625 C-164.46367197 75.34388556 -160.1369213 86.46007235 -155.73901367 97.55322266 C-132.0327126 157.37689265 -132.0327126 157.37689265 -137.59375 172.82421875 C-139.84199426 177.85297711 -142.75607042 182.1779418 -147.03125 185.69921875 C-150.46875 186.69921875 -150.46875 186.69921875 -153.03125 186.69921875 C-153.36125 185.70921875 -153.69125 184.71921875 -154.03125 183.69921875 C-152.34827959 181.13895526 -150.43863532 178.83594387 -148.5 176.46484375 C-146.44863657 172.60217006 -146.8098501 170.89123769 -148.03125 166.69921875 C-149.79389908 163.41889644 -151.87025695 160.41567391 -154.03125 157.38671875 C-154.61849854 156.54802246 -155.20574707 155.70932617 -155.81079102 154.84521484 C-161.05969128 147.45128647 -166.52334521 140.45419939 -173.59375 134.69921875 C-174.398125 134.03921875 -175.2025 133.37921875 -176.03125 132.69921875 C-176.03125 132.03921875 -176.03125 131.37921875 -176.03125 130.69921875 C-175.04125 130.69921875 -174.05125 130.69921875 -173.03125 130.69921875 C-173.69125 129.70921875 -174.35125 128.71921875 -175.03125 127.69921875 C-173.38125 128.35921875 -171.73125 129.01921875 -170.03125 129.69921875 C-169.53625 128.70921875 -169.53625 128.70921875 -169.03125 127.69921875 C-162.31639963 133.28039308 -156.73413766 139.39568939 -151.21875 146.13671875 C-149.29153607 148.73153847 -149.29153607 148.73153847 -147.03125 149.69921875 C-147.29399146 148.21859333 -147.56703236 146.7397959 -147.84375 145.26171875 C-147.99457031 144.43800781 -148.14539063 143.61429688 -148.30078125 142.765625 C-149.28182655 138.64733322 -150.6420677 134.69552593 -152.03125 130.69921875 C-152.45921875 129.466875 -152.8871875 128.23453125 -153.328125 126.96484375 C-158.29988397 113.11181875 -163.91375304 99.51202438 -169.47283936 85.88745117 C-170.69985519 82.87971632 -171.92480677 79.87114295 -173.14941406 76.86242676 C-173.73183218 75.43371254 -174.31562775 74.00555898 -174.90087891 72.57800293 C-181.6728791 56.05295635 -188.91615539 35.84557721 -182.40625 18.01171875 C-181.28515625 15.765625 -181.28515625 15.765625 -180.03125 13.69921875 C-179.60714844 12.98636719 -179.18304688 12.27351563 -178.74609375 11.5390625 C-173.48936439 3.70521791 -164.96604474 -1.55146366 -155.86328125 -3.84765625 C-145.50506598 -5.50497069 -134.86012442 -5.73059116 -125.640625 -0.2421875 C-111.741427 10.09898227 -106.84511712 25.14949864 -103.52978516 41.41259766 C-102.95059687 44.06914883 -102.27817467 46.69471719 -101.6015625 49.328125 C-100.18166872 54.9392662 -99.01208852 60.57920843 -97.88793945 66.25610352 C-95.00230194 86.71186894 -95.00230194 86.71186894 -86.03125 104.69921875 C-83.57537036 105.53278288 -83.57537036 105.53278288 -81.03125 104.69921875 C-73.62069231 96.85274591 -73.35111123 83.13465414 -72.03125 72.94921875 C-71.77698242 71.0626355 -71.77698242 71.0626355 -71.51757812 69.13793945 C-70.71192945 63.11039531 -69.94880746 57.07992543 -69.25 51.0390625 C-64.82963721 12.88811463 -64.82963721 12.88811463 -51.1171875 0.23046875 C-35.42243715 -11.2907712 -15.8357253 -11.38909954 0 0 Z " fill="#0D090B" transform="translate(331.03125,90.30078125)"/>
<path d="M0 0 C2.89125886 2.91748343 3.43165701 5.13830533 3.4375 9.1875 C3.16676813 17.67043191 -0.16050689 23.9305663 -5.88671875 30.0859375 C-14.82351111 38.1802596 -25.93242327 42.79819668 -37.5 45.625 C-38.27085937 45.82867187 -39.04171875 46.03234375 -39.8359375 46.2421875 C-53.18692098 49.56926964 -66.81903382 50.33906191 -80.52197266 50.26074219 C-82.76361688 50.24993435 -85.00447204 50.26077022 -87.24609375 50.2734375 C-96.01332305 50.28190872 -104.35948208 49.63661393 -113 48 C-114.93552734 47.66548828 -114.93552734 47.66548828 -116.91015625 47.32421875 C-131.44513721 44.38840475 -144.18116827 39.40773636 -152.84765625 26.828125 C-156.28849202 21.36944317 -156.68167703 16.36231893 -156 10 C-155.21888607 7.4534783 -154.23927323 5.37527369 -153 3 C-151.47734784 3.26041335 -149.95694316 3.53397316 -148.4375 3.8125 C-147.59058594 3.96332031 -146.74367187 4.11414063 -145.87109375 4.26953125 C-142.39059905 5.15504487 -139.29028963 6.56404386 -136 8 C-133.5253924 8.87558931 -131.06312384 9.70979267 -128.5625 10.5 C-126.70818359 11.10328125 -126.70818359 11.10328125 -124.81640625 11.71875 C-112.04140624 15.30904422 -99.89851683 16.46580639 -86.69189453 16.33618164 C-84.13411699 16.31258411 -81.57739057 16.31565174 -79.01953125 16.32226562 C-63.73026097 16.29877811 -48.68495875 15.41948951 -34 10.875 C-32.99743164 10.57658203 -31.99486328 10.27816406 -30.96191406 9.97070312 C-23.54667843 7.68365112 -16.48531562 4.84368944 -9.53125 1.40185547 C-3.78283324 -1.3941898 -3.78283324 -1.3941898 0 0 Z " fill="#FCFCFC" transform="translate(344,372)"/>
<path d="M0 0 C6.32934512 2.50229923 10.48948378 8.48638474 13.25 14.5 C13.87998308 15.98101286 14.45868877 17.48432855 15 19 C15.53560547 20.4540625 15.53560547 20.4540625 16.08203125 21.9375 C20.03467458 36.24522542 18.82955553 55.73628426 12 69 C5.11749855 80.02286228 5.11749855 80.02286228 -1.6171875 81.62109375 C-6.85499475 81.9765682 -10.32031225 81.34137439 -14.4375 78 C-20.85918935 71.44725576 -22.87971044 63.73816305 -25 55 C-18.43723889 50.16686378 -11.82851569 45.4511806 -5 41 C-8.99372394 37.55686712 -13.16112054 35.15358364 -17.8125 32.75 C-18.50537109 32.38648438 -19.19824219 32.02296875 -19.91210938 31.6484375 C-21.6055689 30.76083113 -23.30244124 29.87974115 -25 29 C-24.85348328 20.50203003 -21.66823323 10.64250877 -15.49365234 4.50195312 C-10.23131983 0.0439212 -6.73810335 -0.62215937 0 0 Z " fill="#030303" transform="translate(234,210)"/>
<path d="M0 0 C7.10429062 4.21207537 11.1555956 10.41492159 14 18 C14.31839844 18.8353125 14.63679688 19.670625 14.96484375 20.53125 C20.08507341 36.95373776 18.1000714 55.24004053 10.765625 70.58203125 C7.77300838 75.81911033 3.83002097 80.05665968 -2 82 C-6.54219153 82.62343805 -9.32691238 82.16548584 -13.0625 79.625 C-19.3447446 74.46502046 -23.59034328 66.98805477 -25 59 C-24.95703125 56.58984375 -24.95703125 56.58984375 -24 54 C-21.75377796 52.23007111 -19.69235644 50.808772 -17.25 49.375 C-16.62867188 48.9934375 -16.00734375 48.611875 -15.3671875 48.21875 C-12.62198829 46.53919774 -9.85733497 44.92036423 -7.046875 43.3515625 C-6.37140625 42.90554687 -5.6959375 42.45953125 -5 42 C-5 41.34 -5 40.68 -5 40 C-11.6 36.37 -18.2 32.74 -25 29 C-23.97700833 18.77008332 -22.24739074 10.28930322 -14.25 3.3125 C-9.42304564 -0.12206368 -5.88950282 -1.23652081 0 0 Z " fill="#040404" transform="translate(302,210)"/>
<path d="M0 0 C2.89125886 2.91748343 3.43165701 5.13830533 3.4375 9.1875 C3.16676813 17.67043191 -0.16050689 23.9305663 -5.88671875 30.0859375 C-14.82351111 38.1802596 -25.93242327 42.79819668 -37.5 45.625 C-38.27085937 45.82867187 -39.04171875 46.03234375 -39.8359375 46.2421875 C-53.18692098 49.56926964 -66.81903382 50.33906191 -80.52197266 50.26074219 C-82.76361688 50.24993435 -85.00447204 50.26077022 -87.24609375 50.2734375 C-95.85268519 50.28239631 -104.63098816 50.23663679 -113 48 C-113.33 47.34 -113.66 46.68 -114 46 C-113.4237085 45.98541748 -112.84741699 45.97083496 -112.25366211 45.95581055 C-88.14830177 45.28324651 -64.48565079 43.33139732 -42 34.125 C-41.22237305 33.80958252 -40.44474609 33.49416504 -39.64355469 33.16918945 C-34.8033486 31.09131794 -30.81905992 28.58397529 -26.7265625 25.26513672 C-25 24 -25 24 -22 23 C-22 22.34 -22 21.68 -22 21 C-21.01 20.34 -20.02 19.68 -19 19 C-19 18.34 -19 17.68 -19 17 C-19.66 17.18175781 -20.32 17.36351562 -21 17.55078125 C-47.27639211 24.22252143 -77.2348588 25.96284587 -104 21 C-104.90492188 20.84402344 -105.80984375 20.68804687 -106.7421875 20.52734375 C-109.17886922 20.07568468 -111.58578696 19.55891749 -114 19 C-114.98742187 18.773125 -115.97484375 18.54625 -116.9921875 18.3125 C-126.35649654 16.0706704 -135.81201021 13.23520595 -144 8 C-144.33 7.01 -144.66 6.02 -145 5 C-143.845 5.391875 -142.69 5.78375 -141.5 6.1875 C-139.66702551 6.79275449 -137.83363113 7.39673774 -136 8 C-134.81277344 8.39832031 -133.62554687 8.79664063 -132.40234375 9.20703125 C-131.08096156 9.63873282 -129.75934531 10.06971858 -128.4375 10.5 C-127.21933594 10.9021875 -126.00117188 11.304375 -124.74609375 11.71875 C-112.01750436 15.35941585 -99.86167743 16.4654448 -86.69189453 16.33618164 C-84.13411699 16.31258411 -81.57739057 16.31565174 -79.01953125 16.32226562 C-63.73026097 16.29877811 -48.68495875 15.41948951 -34 10.875 C-32.99743164 10.57658203 -31.99486328 10.27816406 -30.96191406 9.97070312 C-23.54667843 7.68365112 -16.48531562 4.84368944 -9.53125 1.40185547 C-3.78283324 -1.3941898 -3.78283324 -1.3941898 0 0 Z " fill="#D7D7D7" transform="translate(344,372)"/>
<path d="M0 0 C1.6328125 1.24609375 1.6328125 1.24609375 3 3 C4.04086287 10.77082552 0.36992693 16.92400571 -4 23 C-4.48210937 23.71285156 -4.96421875 24.42570312 -5.4609375 25.16015625 C-10.70449459 32.0672784 -18.64631982 36.9754812 -27.23779297 38.36083984 C-37.66762584 39.31977882 -47.22774615 38.51009922 -55.6796875 31.90625 C-68.46348366 20.78990551 -68.46348366 20.78990551 -69.1875 12.9765625 C-69.25 10.8125 -69.25 10.8125 -69 7 C-67 5 -67 5 -63.375 4.5625 C-58.74376804 4.62918974 -54.7632024 5.99302488 -50.4375 7.5 C-38.49881648 11.52738905 -27.61811877 11.545596 -15.84375 6.4453125 C-12.62394897 4.80887516 -9.64514503 2.95173363 -6.64453125 0.94921875 C-4.28370449 -0.41344372 -2.64472534 -0.60450865 0 0 Z " fill="#060606" transform="translate(298,311)"/>
<path d="M0 0 C4.7286837 3.32285882 7.18568778 6.63379384 8.5546875 12.29296875 C10.85514926 26.2773547 7.30840128 39.47969711 4 53 C3.78118164 53.91104492 3.56236328 54.82208984 3.33691406 55.76074219 C1.3523459 64.01618326 -0.74091653 72.22560443 -3.125 80.375 C-6.85400898 93.3283996 -8.55878254 105.58090348 -9 119 C-9.99 119 -10.98 119 -12 119 C-12.68580471 116.58743699 -13.3483123 114.17181241 -14 111.75 C-14.19078125 111.08742188 -14.3815625 110.42484375 -14.578125 109.7421875 C-17.19902432 99.8202115 -16.15544121 89.91704853 -14.375 79.9375 C-14.2004126 78.92453857 -14.0258252 77.91157715 -13.84594727 76.86791992 C-11.45718351 63.40817462 -8.50390788 50.01563154 -5.18847656 36.75390625 C-3.35435543 29.28338121 -2.36830688 22.04543828 -1.875 14.375 C-1.72979334 12.27841957 -1.58150249 10.18204978 -1.4296875 8.0859375 C-1.37022949 7.1789209 -1.31077148 6.2719043 -1.24951172 5.33740234 C-1 3 -1 3 0 0 Z " fill="#D7D7D7" transform="translate(326,97)"/>
<path d="M0 0 C6.48494322 1.19111202 10.05414855 3.71553376 14 9 C23.84095954 25.15989146 26.37875864 44.11993883 30.07275391 62.39624023 C34.05231359 83.34831748 34.05231359 83.34831748 42 103 C42 103.66 42 104.32 42 105 C37.19442497 103.86927646 35.10485641 101.17529011 32.40234375 97.296875 C26.50392338 87.6359525 24.13562876 75.78339653 21 65 C20.62266466 63.7186708 20.24508922 62.43741227 19.8671875 61.15625 C18.31990351 55.8443144 16.86535649 50.52542387 15.55615234 45.14941406 C12.39189116 32.17312636 8.92419271 19.97074248 2.59082031 8.13867188 C0 3.27559513 0 3.27559513 0 0 Z " fill="#D6D6D6" transform="translate(195,95)"/>
<path d="M0 0 C12.01503348 -0.88635493 19.80277766 0.50569187 29.625 8.00390625 C36.46296623 14.18046205 41.55580253 21.69056732 46.75 29.25 C47.47864258 30.2920459 48.20728516 31.3340918 48.95800781 32.40771484 C54.56886454 40.8402241 54.56886454 40.8402241 54.140625 45.109375 C53 48 53 48 50 50 C49.38125 49.00033203 49.38125 49.00033203 48.75 47.98046875 C44.93660532 41.89435894 40.92174702 36.0505057 36.6015625 30.3125 C35 28 35 28 34 25 C33.34 25 32.68 25 32 25 C30.97350723 23.87474845 30.00412304 22.69717355 29.0625 21.5 C21.69656803 12.88612088 12.1738099 7.6874098 2 3 C2 2.34 2 1.68 2 1 C1.34 0.67 0.68 0.34 0 0 Z " fill="#D8D8D8" transform="translate(131,218)"/>
<path d="M0 0 C1.32 0 2.64 0 4 0 C3 2 3 2 1 4 C1 4.99 1 5.98 1 7 C-0.32 7.66 -1.64 8.32 -3 9 C-2.690625 9.804375 -2.38125 10.60875 -2.0625 11.4375 C-1.9630891 17.10392121 -5.3090597 19.95039943 -9 24 C-9.75023437 24.83144531 -10.50046875 25.66289062 -11.2734375 26.51953125 C-16.92940898 32.47752062 -23.3425806 38.77802572 -31 42 C-34.234375 41.140625 -34.234375 41.140625 -37 40 C-37.99 40.495 -37.99 40.495 -39 41 C-38.67 41.99 -38.34 42.98 -38 44 C-39.32 44 -40.64 44 -42 44 C-43.485 44.495 -43.485 44.495 -45 45 C-45.495 44.505 -45.495 44.505 -46 44 C-46.66 44.66 -47.32 45.32 -48 46 C-48.33 45.01 -48.66 44.02 -49 43 C-50.485 43.495 -50.485 43.495 -52 44 C-51.34 44.33 -50.68 44.66 -50 45 C-50.33 45.66 -50.66 46.32 -51 47 C-51.66 46.67 -52.32 46.34 -53 46 C-53 46.66 -53 47.32 -53 48 C-51.68 48.66 -50.36 49.32 -49 50 C-54.78146482 51.96569804 -58.73760995 52.45949029 -64.375 49.9375 C-64.91125 49.628125 -65.4475 49.31875 -66 49 C-65.67 48.34 -65.34 47.68 -65 47 C-65.99 46.67 -66.98 46.34 -68 46 C-68 47.65 -68 49.3 -68 51 C-65.69 51.33 -63.38 51.66 -61 52 C-61 52.33 -61 52.66 -61 53 C-70.46045504 52.03791983 -70.46045504 52.03791983 -74 50 C-74.62890625 47.92578125 -74.62890625 47.92578125 -75 46 C-73.96613159 45.81207886 -73.96613159 45.81207886 -72.91137695 45.62036133 C-44.38734722 40.36725137 -22.47460418 31.9935267 -4.875 7.76171875 C-2.95676757 5.04776346 -2.95676757 5.04776346 -1.5 2.14453125 C-1.005 1.43683594 -0.51 0.72914063 0 0 Z " fill="#0A0206" transform="translate(450,415)"/>
<path d="M0 0 C2.375 1.5 2.375 1.5 4 3 C1.51737762 9.06863248 -4.40216756 11.8793664 -10.1875 14.375 C-19.58810778 15.91608324 -27.82135281 16.2343342 -36 11 C-34.62963573 8.14752501 -33.44627723 6.05487288 -31 4 C-27.30624122 2.76874707 -23.84512599 2.53579968 -20 3 C-17.5 4.5 -17.5 4.5 -16 6 C-13.44923847 4.82272545 -11.40294284 3.55869688 -9.125 1.875 C-5.62907136 -0.22255718 -3.99624273 -0.60812389 0 0 Z " fill="#EA9FBE" transform="translate(284,331)"/>
<path d="M0 0 C1.70290972 -0.01687545 3.40612292 -0.01131425 5.10896778 0.01117325 C6.04666455 0.00775555 6.98436131 0.00433785 7.95047313 0.00081658 C11.10613524 -0.00579472 14.26095488 0.01626766 17.41653919 0.03808975 C19.67311044 0.03921753 21.92968316 0.03858574 24.18625355 0.03631973 C30.3244376 0.03516893 36.46231097 0.05873773 42.60042262 0.08661556 C49.01061392 0.11156813 55.42081182 0.11396636 61.8310442 0.11871719 C72.59414556 0.1297495 83.35711067 0.15475871 94.12015247 0.1904335 C105.20673519 0.22714251 116.29328689 0.25545968 127.3799181 0.27246475 C128.06315192 0.27351565 128.74638573 0.27456654 129.4503236 0.27564928 C132.87786382 0.28086938 136.30540426 0.28592422 139.73294485 0.29089689 C168.17353484 0.3323723 196.61400062 0.40312946 225.05447865 0.49219131 C225.45666615 1.42031631 225.45666615 1.42031631 225.86697865 2.36719131 C227.01004713 4.79171462 227.01004713 4.79171462 230.05447865 6.49219131 C227.61600414 6.37821588 225.17934691 6.25148158 222.74197865 6.11719131 C221.70653919 6.07078506 221.70653919 6.07078506 220.65018177 6.02344131 C216.98457076 5.81094213 215.17547073 5.5728527 212.05447865 3.49219131 C213.04447865 3.49219131 214.03447865 3.49219131 215.05447865 3.49219131 C211.89405151 1.91197775 208.50109082 2.35917286 205.03137684 2.3719368 C204.19253976 2.37108237 203.35370267 2.37022795 202.48944628 2.36934763 C199.66263235 2.36769304 196.83587701 2.37321387 194.00906849 2.37866592 C191.98909475 2.37894783 189.96912091 2.37879 187.94914722 2.37822342 C182.45149819 2.37793556 176.95387081 2.38383039 171.45622683 2.39079738 C165.7159988 2.39703288 159.97577032 2.39763487 154.23553944 2.39882278 C143.35935768 2.40193552 132.48318592 2.41014813 121.60700858 2.42017227 C109.22751346 2.4313352 96.84801787 2.43684432 84.46851897 2.44186771 C58.99716664 2.45233079 33.5258232 2.46992912 8.05447865 2.49219131 C8.05447865 3.15219131 8.05447865 3.81219131 8.05447865 4.49219131 C-0.2536434 6.23859248 -8.47454207 7.02226838 -16.94552135 7.49219131 C-16.94552135 7.16219131 -16.94552135 6.83219131 -16.94552135 6.49219131 C-15.91491589 6.34523819 -15.91491589 6.34523819 -14.8634901 6.19531631 C-13.96243542 6.04578506 -13.06138073 5.89625381 -12.13302135 5.74219131 C-11.23970104 5.60297256 -10.34638073 5.46375381 -9.4259901 5.32031631 C-6.78919565 4.75469477 -6.78919565 4.75469477 -5.85639763 2.47049713 C-3.94552135 0.49219131 -3.94552135 0.49219131 0 0 Z " fill="#14030A" transform="translate(145.9455213546753,461.50780868530273)"/>
<path d="M0 0 C4.54033695 0.55987263 4.54033695 0.55987263 6.5625 2.49609375 C7.036875 3.13675781 7.51125 3.77742188 8 4.4375 C16.34389245 14.49342222 27.26290598 20.68575353 39 26 C38.01 26.495 38.01 26.495 37 27 C37 27.66 37 28.32 37 29 C37.66 29.33 38.32 29.66 39 30 C38.01 30.99 37.02 31.98 36 33 C34.68 32.34 33.36 31.68 32 31 C32 30.67 32 30.34 32 30 C31.01 30.495 31.01 30.495 30 31 C27.86328125 29.9609375 27.86328125 29.9609375 25.3125 28.375 C24.42433594 27.82328125 23.53617188 27.2715625 22.62109375 26.703125 C19.33269422 24.56640042 16.1535018 22.33084916 13 20 C13.66 18.68 14.32 17.36 15 16 C14.2575 15.938125 13.515 15.87625 12.75 15.8125 C9.12870887 14.74257307 8.01287885 13.13114488 6 10 C6 9.01 6 8.02 6 7 C4.68 7.33 3.36 7.66 2 8 C0.68 6.35 -0.64 4.7 -2 3 C-1.34 2.01 -0.68 1.02 0 0 Z " fill="#0B0206" transform="translate(67,428)"/>
<path d="M0 0 C0.495 0.99 0.495 0.99 1 2 C0.34 2.33 -0.32 2.66 -1 3 C-1.66 3.99 -2.32 4.98 -3 6 C-3.66 6.33 -4.32 6.66 -5 7 C-4.505 8.485 -4.505 8.485 -4 10 C-5.32 10 -6.64 10 -8 10 C-8.99 10.33 -9.98 10.66 -11 11 C-11.33 10.67 -11.66 10.34 -12 10 C-12.66 10.66 -13.32 11.32 -14 12 C-14.33 11.01 -14.66 10.02 -15 9 C-15.99 9.33 -16.98 9.66 -18 10 C-17.34 10.33 -16.68 10.66 -16 11 C-16.33 11.66 -16.66 12.32 -17 13 C-17.66 12.67 -18.32 12.34 -19 12 C-19 12.66 -19 13.32 -19 14 C-17.68 14.66 -16.36 15.32 -15 16 C-20.78146482 17.96569804 -24.73760995 18.45949029 -30.375 15.9375 C-30.91125 15.628125 -31.4475 15.31875 -32 15 C-31.67 14.34 -31.34 13.68 -31 13 C-31.99 12.67 -32.98 12.34 -34 12 C-34 13.65 -34 15.3 -34 17 C-31.69 17.33 -29.38 17.66 -27 18 C-27 18.33 -27 18.66 -27 19 C-36.46045504 18.03791983 -36.46045504 18.03791983 -40 16 C-40.62890625 13.92578125 -40.62890625 13.92578125 -41 12 C-40.31075439 11.87471924 -39.62150879 11.74943848 -38.91137695 11.62036133 C-18.55985573 8.39883379 -18.55985573 8.39883379 0 0 Z " fill="#090104" transform="translate(416,449)"/>
<path d="M0 0 C1.38058594 0.39832031 1.38058594 0.39832031 2.7890625 0.8046875 C11.51296799 3.23885258 19.98698916 4.94454727 29 6 C28.734375 7.890625 28.734375 7.890625 28 10 C24.11421304 12.43315632 19.54771913 13.42634867 15 13 C17.64738916 11.5393715 18.89448334 11 22 11 C22.33 9.35 22.66 7.7 23 6 C22.01 6.33 21.02 6.66 20 7 C20.33 7.66 20.66 8.32 21 9 C15.77729131 11.66464729 12.9180497 12.32854177 7 11 C7.66 10.67 8.32 10.34 9 10 C8.01 9.34 7.02 8.68 6 8 C6.66 7.34 7.32 6.68 8 6 C8.99 6 9.98 6 11 6 C11 5.34 11 4.68 11 4 C10.01 4.33 9.02 4.66 8 5 C6.68 5 5.36 5 4 5 C3.13375 5.185625 2.2675 5.37125 1.375 5.5625 C-1 6 -1 6 -3 5 C-2.01 3.35 -1.02 1.7 0 0 Z " fill="#0F0309" transform="translate(108,455)"/>
<path d="M0 0 C0.66 1.32 1.32 2.64 2 4 C0.65114018 4.94511946 -0.70442738 5.8806672 -2.0625 6.8125 C-2.81660156 7.33457031 -3.57070313 7.85664063 -4.34765625 8.39453125 C-10.65888428 12.21472966 -15.70451999 13.48486805 -22.9375 13.375 C-23.69740234 13.38660156 -24.45730469 13.39820313 -25.24023438 13.41015625 C-30.77278821 13.38180841 -34.92094914 12.18416522 -40 10 C-39.34 9.67 -38.68 9.34 -38 9 C-38 8.34 -38 7.68 -38 7 C-37.13375 7.33 -36.2675 7.66 -35.375 8 C-25.51616731 10.75408686 -15.04272704 9.69382017 -6 5 C-3.75605992 3.46192068 -1.95859181 1.9056569 0 0 Z " fill="#21151A" transform="translate(287,336)"/>
<path d="M0 0 C1.32 0 2.64 0 4 0 C3 2 3 2 1 4 C1 4.99 1 5.98 1 7 C-0.98 7.99 -0.98 7.99 -3 9 C-2.7525 9.9075 -2.505 10.815 -2.25 11.75 C-2 15 -2 15 -3.5625 17.3125 C-7.25038704 19.86565256 -10.60473443 20 -15 20 C-14.33613281 19.2265625 -13.67226563 18.453125 -12.98828125 17.65625 C-12.09509085 16.60523898 -11.20325222 15.55307823 -10.3125 14.5 C-9.85278809 13.95698242 -9.39307617 13.41396484 -8.91943359 12.85449219 C-6.35643606 9.7796225 -4.11408001 6.7387334 -2.125 3.25 C-1.073125 1.64125 -1.073125 1.64125 0 0 Z " fill="#10050A" transform="translate(450,415)"/>
<path d="M0 0 C2.39549676 3.10091913 4.52860291 6.31536885 6.625 9.625 C7.23601562 10.58664062 7.84703125 11.54828125 8.4765625 12.5390625 C10 15 10 15 11 17 C10.21625 17.144375 9.4325 17.28875 8.625 17.4375 C6.03578982 17.87798925 6.03578982 17.87798925 4 19 C0.90082645 14.66115702 0.90082645 14.66115702 1.375 11.5 C1.684375 10.2625 1.684375 10.2625 2 9 C1.62277985 6.27497035 1.62277985 6.27497035 1 4 C0.01 5.32 -0.98 6.64 -2 8 C-2.6875 6.25 -2.6875 6.25 -3 4 C-1.5625 1.75 -1.5625 1.75 0 0 Z " fill="#11050A" transform="translate(59,410)"/>
<path d="M0 0 C0.33 0.66 0.66 1.32 1 2 C0.01 2.495 0.01 2.495 -1 3 C-1.99 4.485 -1.99 4.485 -3 6 C-3.99 6.495 -3.99 6.495 -5 7 C-4.67 7.99 -4.34 8.98 -4 10 C-5.32 10 -6.64 10 -8 10 C-8.99 10.33 -9.98 10.66 -11 11 C-11.33 10.67 -11.66 10.34 -12 10 C-12.66 10.66 -13.32 11.32 -14 12 C-14.33 11.01 -14.66 10.02 -15 9 C-15.99 9.495 -15.99 9.495 -17 10 C-17.99 9.34 -18.98 8.68 -20 8 C-18.21142578 7.38511719 -18.21142578 7.38511719 -16.38671875 6.7578125 C-14.82023516 6.21376431 -13.25383314 5.6694812 -11.6875 5.125 C-10.50897461 4.72087891 -10.50897461 4.72087891 -9.30664062 4.30859375 C-8.54931641 4.04433594 -7.79199219 3.78007812 -7.01171875 3.5078125 C-6.31522217 3.26691895 -5.61872559 3.02602539 -4.90112305 2.77783203 C-2.72867697 1.96234576 -2.72867697 1.96234576 0 0 Z " fill="#1E0C14" transform="translate(416,449)"/>
<path d="M0 0 C-0.33 0.66 -0.66 1.32 -1 2 C-3.475 1.505 -3.475 1.505 -6 1 C-6 1.66 -6 2.32 -6 3 C-8.97 2.505 -8.97 2.505 -12 2 C-12 3.65 -12 5.3 -12 7 C-9.69 7.33 -7.38 7.66 -5 8 C-5 8.33 -5 8.66 -5 9 C-14.46045504 8.03791983 -14.46045504 8.03791983 -18 6 C-18.62890625 3.92578125 -18.62890625 3.92578125 -19 2 C-16.20962572 1.47120316 -13.41807402 0.95165912 -10.625 0.4375 C-9.8309375 0.28603516 -9.036875 0.13457031 -8.21875 -0.02148438 C-2.2265625 -1.11328125 -2.2265625 -1.11328125 0 0 Z " fill="#200D15" transform="translate(394,459)"/>
<path d="M0 0 C0.66 0 1.32 0 2 0 C2.02692484 2.29160319 2.04636124 4.58329546 2.0625 6.875 C2.07410156 8.15117187 2.08570313 9.42734375 2.09765625 10.7421875 C2 14 2 14 1 16 C0.77377919 17.70363822 0.59111527 19.41328701 0.4375 21.125 C0.31181641 22.49011719 0.31181641 22.49011719 0.18359375 23.8828125 C0.12300781 24.58148438 0.06242187 25.28015625 0 26 C-0.33 26 -0.66 26 -1 26 C-1.09744014 17.27369392 -1.16711095 8.66996704 0 0 Z " fill="#C48DA5" transform="translate(379,258)"/>
<path d="M0 0 C2.00293347 3.00440021 2.49271626 4.70993945 3.125 8.1875 C3.29257812 9.08855469 3.46015625 9.98960937 3.6328125 10.91796875 C3.75398438 11.60503906 3.87515625 12.29210937 4 13 C1.0625 11.875 1.0625 11.875 -2 10 C-3.0625 7.0625 -3.0625 7.0625 -3 4 C-1.5625 1.625 -1.5625 1.625 0 0 Z " fill="#1A0C13" transform="translate(54,395)"/>
<path d="M0 0 C0.94875 0.309375 1.8975 0.61875 2.875 0.9375 C7.50938425 2.27928271 12.20552041 2.63342007 17 3 C17 3.33 17 3.66 17 4 C15.39125 4.2165625 15.39125 4.2165625 13.75 4.4375 C10.26191328 4.85984043 10.26191328 4.85984043 8.03125 5.625 C5.47123506 6.09761814 4.13355676 5.55564865 1.75 4.5625 C1.04359375 4.27503906 0.3371875 3.98757813 -0.390625 3.69140625 C-0.92171875 3.46324219 -1.4528125 3.23507812 -2 3 C-1.34 2.67 -0.68 2.34 0 2 C0 1.34 0 0.68 0 0 Z " fill="#190E13" transform="translate(249,343)"/>
<path d="M0 0 C1.22419163 3.93795909 0.48320272 6.16112237 -1 10 C-1.66 10 -2.32 10 -3 10 C-3.28875 10.7425 -3.5775 11.485 -3.875 12.25 C-4.24625 13.1575 -4.6175 14.065 -5 15 C-5.28875 15.7425 -5.5775 16.485 -5.875 17.25 C-7 19 -7 19 -9.0703125 19.609375 C-9.70710938 19.73828125 -10.34390625 19.8671875 -11 20 C-10.54109375 19.31035156 -10.0821875 18.62070312 -9.609375 17.91015625 C-5.82794433 12.11884752 -2.55656686 6.43111539 0 0 Z " fill="#DEA0BA" transform="translate(368,335)"/>
<path d="M0 0 C4.455 1.98 4.455 1.98 9 4 C8.01 4.495 8.01 4.495 7 5 C7 5.66 7 6.32 7 7 C7.66 7.33 8.32 7.66 9 8 C8.01 8.99 7.02 9.98 6 11 C4.68 10.34 3.36 9.68 2 9 C2.66 8.67 3.32 8.34 4 8 C4.33 7.01 4.66 6.02 5 5 C3.68 4.67 2.36 4.34 1 4 C0.67 2.68 0.34 1.36 0 0 Z " fill="#0C0106" transform="translate(97,450)"/>
<path d="M0 0 C0.56847656 0.19335938 1.13695312 0.38671875 1.72265625 0.5859375 C6.45364938 2.18136423 11.18794425 3.66900586 16 5 C12.66767207 7.22155195 11.864865 7.52702705 8 7 C5.40542309 5.88411205 3.37485238 4.59845833 1 3 C0.67 2.01 0.34 1.02 0 0 Z " fill="#C6C6C6" transform="translate(199,377)"/>
<path d="M0 0 C5.94 1.485 5.94 1.485 12 3 C8 5 8 5 4 5 C3.13375 5.185625 2.2675 5.37125 1.375 5.5625 C-1 6 -1 6 -3 5 C-2.01 3.35 -1.02 1.7 0 0 Z " fill="#1C0A12" transform="translate(108,455)"/>
<path d="M0 0 C3.3 1.98 6.6 3.96 10 6 C9.01 6.495 9.01 6.495 8 7 C7.67 7.99 7.34 8.98 7 10 C4.625 8.9375 4.625 8.9375 2 7 C0.6875 3.3125 0.6875 3.3125 0 0 Z " fill="#15070D" transform="translate(86,443)"/>
<path d="M0 0 C0.66 0.33 1.32 0.66 2 1 C1.34 2.65 0.68 4.3 0 6 C-0.66 6 -1.32 6 -2 6 C-1.67 8.97 -1.34 11.94 -1 15 C-3.47649442 12.09281089 -5 9.88631382 -5 6 C-3.53621132 3.71519332 -1.88910043 1.98125167 0 0 Z " fill="#E0A0BB" transform="translate(355,357)"/>
<path d="M0 0 C2.15546298 3.23319447 2.68074747 5.16896958 3 9 C2.01 10.485 2.01 10.485 1 12 C0.01 11.01 -0.98 10.02 -2 9 C-2 9.66 -2 10.32 -2 11 C-2.66 10.67 -3.32 10.34 -4 10 C-2.68 6.7 -1.36 3.4 0 0 Z " fill="#17080F" transform="translate(456,400)"/>
<path d="M0 0 C5.61 0.33 11.22 0.66 17 1 C17 1.33 17 1.66 17 2 C16.20335937 2.06058594 15.40671875 2.12117188 14.5859375 2.18359375 C6.75667303 2.79667866 6.75667303 2.79667866 -1 4 C-0.67 2.68 -0.34 1.36 0 0 Z " fill="#E2E2E2" transform="translate(233,388)"/>
<path d="M0 0 C4.95 0 9.9 0 15 0 C15 0.66 15 1.32 15 2 C8.565 2.495 8.565 2.495 2 3 C2 2.34 2 1.68 2 1 C1.34 0.67 0.68 0.34 0 0 Z " fill="#BDBDBD" transform="translate(131,218)"/>
<path d="M0 0 C2.22698735 3.34048103 2.2711921 4.53285581 2.25 8.4375 C2.25515625 9.38496094 2.2603125 10.33242188 2.265625 11.30859375 C1.99748089 14.02552453 1.38531142 15.67465583 0 18 C-1.33257403 5.33029613 -1.33257403 5.33029613 0 0 Z " fill="#3C222E" transform="translate(353,372)"/>
<path d="M0 0 C2 2 2 2 2.1953125 4.3828125 C2.17210937 5.28773438 2.14890625 6.19265625 2.125 7.125 C2.10695313 8.03507813 2.08890625 8.94515625 2.0703125 9.8828125 C2.04710937 10.58148438 2.02390625 11.28015625 2 12 C1.34 12 0.68 12 0 12 C-0.33 13.32 -0.66 14.64 -1 16 C-2.55373847 12.89252306 -1.58528628 10.25773473 -1.0625 6.875 C-0.86785156 5.59367188 -0.67320312 4.31234375 -0.47265625 2.9921875 C-0.31667969 2.00476563 -0.16070312 1.01734375 0 0 Z " fill="#D79BB5" transform="translate(341,128)"/>
<path d="M0 0 C0.66 0.66 1.32 1.32 2 2 C-4.74233419 2.12910853 -11.30386804 1.797837 -18 1 C-18 0.67 -18 0.34 -18 0 C-11.92656359 -0.86763377 -6.03453648 -1.4671706 0 0 Z " fill="#ADADAD" transform="translate(252,379)"/>
<path d="M0 0 C0 0.66 0 1.32 0 2 C-3.96 2 -7.92 2 -12 2 C-12.33 1.34 -12.66 0.68 -13 0 C-4.57142857 -1.28571429 -4.57142857 -1.28571429 0 0 Z " fill="#050204" transform="translate(271,347)"/>
<path d="M0 0 C1.22589844 0.15275391 1.22589844 0.15275391 2.4765625 0.30859375 C3.41628906 0.43427734 3.41628906 0.43427734 4.375 0.5625 C4.375 1.5525 4.375 2.5425 4.375 3.5625 C3.116875 3.43875 1.85875 3.315 0.5625 3.1875 C-0.49904297 3.08308594 -0.49904297 3.08308594 -1.58203125 2.9765625 C-3.625 2.5625 -3.625 2.5625 -6.625 0.5625 C-4.10446405 -0.69776798 -2.7707902 -0.35624445 0 0 Z " fill="#D4D4D4" transform="translate(216.625,383.4375)"/>
<path d="M0 0 C6.93 0.495 6.93 0.495 14 1 C13.67 1.66 13.34 2.32 13 3 C11.58376784 3.05447047 10.16691809 3.09300508 8.75 3.125 C7.96109375 3.14820313 7.1721875 3.17140625 6.359375 3.1953125 C3.79268059 2.9828378 2.2083933 2.28654105 0 1 C0 0.67 0 0.34 0 0 Z " fill="#C6C6C6" transform="translate(230,418)"/>
<path d="M0 0 C0.33 0.99 0.66 1.98 1 3 C0.01 3 -0.98 3 -2 3 C-2.33 3.99 -2.66 4.98 -3 6 C-3.99 6 -4.98 6 -6 6 C-6.33 6.66 -6.66 7.32 -7 8 C-8.32 7.34 -9.64 6.68 -11 6 C-7.37 4.02 -3.74 2.04 0 0 Z " fill="#DC9DB8" transform="translate(337,412)"/>
<path d="M0 0 C0.66 0.33 1.32 0.66 2 1 C2 3 2 3 0.75 4.375 C0.1725 4.91125 -0.405 5.4475 -1 6 C-1.721875 6.721875 -2.44375 7.44375 -3.1875 8.1875 C-4.0846875 9.0846875 -4.0846875 9.0846875 -5 10 C-5.66 9.67 -6.32 9.34 -7 9 C-4.69 6.03 -2.38 3.06 0 0 Z " fill="#E3A3BE" transform="translate(406,216)"/>
<path d="M0 0 C0.66 0 1.32 0 2 0 C2.99 3.63 3.98 7.26 5 11 C4.01 11.495 4.01 11.495 3 12 C2.67 10.02 2.34 8.04 2 6 C1.34 6 0.68 6 0 6 C0 4.02 0 2.04 0 0 Z " fill="#DB9EB8" transform="translate(173,207)"/>
<path d="M0 0 C0 0.66 0 1.32 0 2 C-0.66 2 -1.32 2 -2 2 C-2.33 2.99 -2.66 3.98 -3 5 C-5.31 5 -7.62 5 -10 5 C-3.63636364 0 -3.63636364 0 0 0 Z " fill="#E399B8" transform="translate(106,58)"/>
<path d="M0 0 C0.33 0 0.66 0 1 0 C1.25 2.8125 1.25 2.8125 1 6 C-1 7.875 -1 7.875 -3 9 C-3 6.69 -3 4.38 -3 2 C-2.01 2 -1.02 2 0 2 C0 1.34 0 0.68 0 0 Z " fill="#26131B" transform="translate(51,377)"/>
<path d="M0 0 C2.475 0.99 2.475 0.99 5 2 C5 2.99 5 3.98 5 5 C2.69 4.34 0.38 3.68 -2 3 C-1.34 2.67 -0.68 2.34 0 2 C0 1.34 0 0.68 0 0 Z " fill="#252023" transform="translate(249,343)"/>
<path d="M0 0 C0.96516243 3.00272755 1.22393475 5.04215769 0 8 C-0.99 8.33 -1.98 8.66 -3 9 C-2.5020163 5.26512223 -2.12508244 3.18762365 0 0 Z " fill="#D49AB3" transform="translate(384,245)"/>
<path d="M0 0 C0 3.16880694 -0.2058242 4.43689172 -2 7 C-4.625 7.75 -4.625 7.75 -7 8 C-6.02133662 6.85373678 -5.04205413 5.70800212 -4.0625 4.5625 C-3.51722656 3.92441406 -2.97195313 3.28632813 -2.41015625 2.62890625 C-1.63204305 1.73008851 -0.84063472 0.84063472 0 0 Z " fill="#E0A4BE" transform="translate(347,403)"/>
<path d="M0 0 C2.31 0.33 4.62 0.66 7 1 C5.875 2.5625 5.875 2.5625 4 4 C0.8125 3.6875 0.8125 3.6875 -2 3 C-1.34 2.01 -0.68 1.02 0 0 Z " fill="#DFDFDF" transform="translate(220,385)"/>
<path d="M0 0 C3.465 1.485 3.465 1.485 7 3 C6.01 4.485 6.01 4.485 5 6 C3.0625 5.25 3.0625 5.25 1 4 C0.25 1.875 0.25 1.875 0 0 Z " fill="#1B0B12" transform="translate(97,450)"/>
<path d="M0 0 C1.32 0 2.64 0 4 0 C4 2.64 4 5.28 4 8 C1.84622436 5.37801226 0.59927826 3.35595828 0 0 Z " fill="#E29BB9" transform="translate(59,408)"/>
<path d="M0 0 C0.66 0 1.32 0 2 0 C2.33 1.65 2.66 3.3 3 5 C1.68 5 0.36 5 -1 5 C-0.67 3.35 -0.34 1.7 0 0 Z " fill="#14090E" transform="translate(458,394)"/>
<path d="M0 0 C1.485 0.99 1.485 0.99 3 2 C3.3125 5 3.3125 5 3 8 C2.34 8.66 1.68 9.32 1 10 C0.67 6.7 0.34 3.4 0 0 Z " fill="#DE96B4" transform="translate(53,119)"/>
<path d="M0 0 C2.31 0.66 4.62 1.32 7 2 C5 4 5 4 2.375 4.125 C1.59125 4.08375 0.8075 4.0425 0 4 C0 2.68 0 1.36 0 0 Z " fill="#E39CBA" transform="translate(408,59)"/>
<path d="M0 0 C2.5654594 2.5654594 2.54046087 4.47686668 3 8 C2.01 8.495 2.01 8.495 1 9 C-1.09230769 4.56923077 -1.09230769 4.56923077 -0.625 1.6875 C-0.41875 1.130625 -0.2125 0.57375 0 0 Z " fill="#17070F" transform="translate(182,393)"/>
<path d="M0 0 C2.4294516 3.6441774 2.16179575 5.71241272 2 10 C0.68 9.34 -0.64 8.68 -2 8 C-1.01 7.67 -0.02 7.34 1 7 C0.67 4.69 0.34 2.38 0 0 Z " fill="#C18EA5" transform="translate(182,230)"/>
<path d="M0 0 C0.33 0 0.66 0 1 0 C1.36923077 6.52307692 1.36923077 6.52307692 -0.5 8.9375 C-0.995 9.288125 -1.49 9.63875 -2 10 C-1.125 2.25 -1.125 2.25 0 0 Z " fill="#C991A9" transform="translate(332,170)"/>
<path d="M0 0 C3.82097239 0.53069061 6.06171403 1.49701566 9 4 C6.03 3.67 3.06 3.34 0 3 C0 2.01 0 1.02 0 0 Z " fill="#1B0A12" transform="translate(319,85)"/>
</svg>
